HIERARCHY
ROOT _rootJoint
{
	OFFSET 0.000000 0.250564 0.338481
	CHANNELS 6 Xposition Yposition Zposition Zrotation Yrotation Xrotation
	JOINT Wolf_01
	{
		OFFSET 0.000000 0.000000 0.000000
		CHANNELS 6 Xposition Yposition Zposition Zrotation Yrotation Xrotation
		JOINT Becken_05
		{
			OFFSET -0.000000 0.056263 0.054369
			CHANNELS 6 Xposition Yposition Zposition Zrotation Yrotation Xrotation
			JOINT Bauch_032
			{
				OFFSET 0.000000 -0.098990 0.017646
				CHANNELS 6 Xposition Yposition Zposition Zrotation Yrotation Xrotation
				JOINT Bauch_001_04
				{
					OFFSET 0.000000 -0.108125 0.003743
					CHANNELS 6 Xposition Yposition Zposition Zrotation Yrotation Xrotation
					JOINT Brust_029
					{
						OFFSET -0.000000 -0.106676 0.008101
						CHANNELS 6 Xposition Yposition Zposition Zrotation Yrotation Xrotation
						JOINT Hals_013
						{
							OFFSET 0.000000 -0.138945 -0.014717
							CHANNELS 6 Xposition Yposition Zposition Zrotation Yrotation Xrotation
							JOINT Kopf_002_014
							{
								OFFSET -0.000000 0.396473 -0.069142
								CHANNELS 6 Xposition Yposition Zposition Zrotation Yrotation Xrotation
								JOINT Kopf_03
								{
									OFFSET 0.000000 -0.449910 0.113305
									CHANNELS 6 Xposition Yposition Zposition Zrotation Yrotation Xrotation
									JOINT Unterkiefer_012
									{
										OFFSET -0.000407 -0.073113 -0.019017
										CHANNELS 6 Xposition Yposition Zposition Zrotation Yrotation Xrotation
										JOINT Hals_fett_022
										{
											OFFSET 0.000407 -0.009753 -0.030819
											CHANNELS 6 Xposition Yposition Zposition Zrotation Yrotation Xrotation
											End Site
											{
												OFFSET -1.000000 0.000000 -0.000000
											}
										}
										JOINT Maulunten_011
										{
											OFFSET 0.000407 -0.014613 0.001280
											CHANNELS 6 Xposition Yposition Zposition Zrotation Yrotation Xrotation
											End Site
											{
												OFFSET -1.000000 -0.000000 0.000000
											}
										}
									}
									JOINT Mauloben_021
									{
										OFFSET -0.000000 -0.098921 -0.010064
										CHANNELS 6 Xposition Yposition Zposition Zrotation Yrotation Xrotation
										End Site
										{
											OFFSET -1.000000 -0.000000 -0.000000
										}
									}
									JOINT MundW_L_02
									{
										OFFSET 0.036228 -0.075578 -0.014907
										CHANNELS 6 Xposition Yposition Zposition Zrotation Yrotation Xrotation
										End Site
										{
											OFFSET 0.907926 -0.397469 0.132996
										}
									}
									JOINT MundW_R_030
									{
										OFFSET -0.036228 -0.075578 -0.014907
										CHANNELS 6 Xposition Yposition Zposition Zrotation Yrotation Xrotation
										End Site
										{
											OFFSET 0.907916 0.397495 -0.132985
										}
									}
									JOINT Augen_con_031
									{
										OFFSET -0.000000 0.449910 -0.113305
										CHANNELS 6 Xposition Yposition Zposition Zrotation Yrotation Xrotation
										JOINT IK_Aug_R_09
										{
											OFFSET 0.000000 0.000000 0.000000
											CHANNELS 6 Xposition Yposition Zposition Zrotation Yrotation Xrotation
											End Site
											{
												OFFSET 0.000000 0.000000 1.000000
											}
										}
										JOINT IK_Aug_L_010
										{
											OFFSET 0.000000 0.000000 0.000000
											CHANNELS 6 Xposition Yposition Zposition Zrotation Yrotation Xrotation
											End Site
											{
												OFFSET 0.000000 0.000000 1.000000
											}
										}
									}
									JOINT Aug_R_06
									{
										OFFSET -0.022119 -0.095533 0.040980
										CHANNELS 6 Xposition Yposition Zposition Zrotation Yrotation Xrotation
										End Site
										{
											OFFSET 0.956596 -0.290486 -0.023291
										}
									}
									JOINT aug_L_07
									{
										OFFSET 0.022119 -0.095533 0.040980
										CHANNELS 6 Xposition Yposition Zposition Zrotation Yrotation Xrotation
										End Site
										{
											OFFSET 0.956596 0.290486 0.023291
										}
									}
									JOINT Ohr_L_08
									{
										OFFSET 0.036475 -0.039728 0.085373
										CHANNELS 6 Xposition Yposition Zposition Zrotation Yrotation Xrotation
										End Site
										{
											OFFSET -0.965714 0.154276 0.208794
										}
									}
									JOINT Ohr_R_015
									{
										OFFSET -0.036475 -0.039728 0.085373
										CHANNELS 6 Xposition Yposition Zposition Zrotation Yrotation Xrotation
										End Site
										{
											OFFSET -0.965714 -0.154276 -0.208794
										}
									}
									JOINT Braun_O_L_00
									{
										OFFSET 0.036984 -0.083108 0.061567
										CHANNELS 6 Xposition Yposition Zposition Zrotation Yrotation Xrotation
										End Site
										{
											OFFSET 0.218981 -0.650585 0.727176
										}
									}
									JOINT Braun_O_R_017
									{
										OFFSET -0.036984 -0.083108 0.061567
										CHANNELS 6 Xposition Yposition Zposition Zrotation Yrotation Xrotation
										End Site
										{
											OFFSET 0.218982 0.650585 -0.727176
										}
									}
									JOINT aug_lied_O_L_016
									{
										OFFSET 0.032663 -0.093881 0.047342
										CHANNELS 6 Xposition Yposition Zposition Zrotation Yrotation Xrotation
										End Site
										{
											OFFSET 0.471983 -0.815141 0.335824
										}
									}
									JOINT aug_lied_O_R_020
									{
										OFFSET -0.032663 -0.093881 0.047342
										CHANNELS 6 Xposition Yposition Zposition Zrotation Yrotation Xrotation
										End Site
										{
											OFFSET 0.471983 0.815140 -0.335824
										}
									}
									JOINT aug_lied_U_L_018
									{
										OFFSET 0.033082 -0.093096 0.044255
										CHANNELS 6 Xposition Yposition Zposition Zrotation Yrotation Xrotation
										End Site
										{
											OFFSET 0.322085 -0.759960 0.564554
										}
									}
									JOINT aug_lied_U_R_019
									{
										OFFSET -0.033082 -0.093096 0.044255
										CHANNELS 6 Xposition Yposition Zposition Zrotation Yrotation Xrotation
										End Site
										{
											OFFSET 0.322085 0.759960 -0.564554
										}
									}
								}
							}
						}
						JOINT Bauch_003_023
						{
							OFFSET 0.000000 0.257528 -0.083859
							CHANNELS 6 Xposition Yposition Zposition Zrotation Yrotation Xrotation
							JOINT Schalterplatte_L_025
							{
								OFFSET 0.038208 -0.315354 0.105362
								CHANNELS 6 Xposition Yposition Zposition Zrotation Yrotation Xrotation
								JOINT Oberarm_L_024
								{
									OFFSET 0.028512 -0.094851 -0.101566
									CHANNELS 6 Xposition Yposition Zposition Zrotation Yrotation Xrotation
									JOINT Unterarm_L_027
									{
										OFFSET 0.003153 0.098010 -0.177542
										CHANNELS 6 Xposition Yposition Zposition Zrotation Yrotation Xrotation
										JOINT Vorderpfote_L_026
										{
											OFFSET 0.002604 -0.029854 -0.167942
											CHANNELS 6 Xposition Yposition Zposition Zrotation Yrotation Xrotation
											End Site
											{
												OFFSET -1.000000 -0.000000 -0.000015
											}
										}
									}
								}
							}
							JOINT Schalterplatte_R_033
							{
								OFFSET -0.038208 -0.315354 0.105362
								CHANNELS 6 Xposition Yposition Zposition Zrotation Yrotation Xrotation
								JOINT Oberarm_R_028
								{
									OFFSET -0.028512 -0.094851 -0.101566
									CHANNELS 6 Xposition Yposition Zposition Zrotation Yrotation Xrotation
									JOINT Unterarm_R_034
									{
										OFFSET -0.003153 0.098011 -0.177542
										CHANNELS 6 Xposition Yposition Zposition Zrotation Yrotation Xrotation
										JOINT Vorderpfote_R_035
										{
											OFFSET -0.002604 -0.029854 -0.167941
											CHANNELS 6 Xposition Yposition Zposition Zrotation Yrotation Xrotation
											End Site
											{
												OFFSET -0.999945 0.000022 0.010440
											}
										}
									}
								}
							}
						}
					}
				}
			}
			JOINT Schwanz_037
			{
				OFFSET 0.000000 0.005057 -0.011797
				CHANNELS 6 Xposition Yposition Zposition Zrotation Yrotation Xrotation
				JOINT Schwanz_001_036
				{
					OFFSET -0.000000 0.085232 -0.032006
					CHANNELS 6 Xposition Yposition Zposition Zrotation Yrotation Xrotation
					JOINT Schwanz_002_039
					{
						OFFSET 0.000000 0.076544 -0.017668
						CHANNELS 6 Xposition Yposition Zposition Zrotation Yrotation Xrotation
						JOINT Schwanz_003_038
						{
							OFFSET -0.000000 0.083495 0.001194
							CHANNELS 6 Xposition Yposition Zposition Zrotation Yrotation Xrotation
							End Site
							{
								OFFSET -1.000000 0.000000 0.000000
							}
						}
					}
				}
			}
			JOINT Oberschenkel_L_041
			{
				OFFSET 0.058370 -0.051243 -0.021344
				CHANNELS 6 Xposition Yposition Zposition Zrotation Yrotation Xrotation
				JOINT Unterschenkel_L_040
				{
					OFFSET 0.014913 -0.013499 -0.167440
					CHANNELS 6 Xposition Yposition Zposition Zrotation Yrotation Xrotation
					JOINT Pfote1_L_042
					{
						OFFSET -0.002217 0.065343 -0.099538
						CHANNELS 6 Xposition Yposition Zposition Zrotation Yrotation Xrotation
						JOINT Pfote2_L_043
						{
							OFFSET 0.007647 0.000092 -0.098466
							CHANNELS 6 Xposition Yposition Zposition Zrotation Yrotation Xrotation
							End Site
							{
								OFFSET -1.000000 -0.000000 0.000009
							}
						}
					}
				}
			}
			JOINT Oberschenkel_R_044
			{
				OFFSET -0.058370 -0.051243 -0.021344
				CHANNELS 6 Xposition Yposition Zposition Zrotation Yrotation Xrotation
				JOINT Unterschenkel_R_045
				{
					OFFSET -0.014913 -0.013499 -0.167441
					CHANNELS 6 Xposition Yposition Zposition Zrotation Yrotation Xrotation
					JOINT Pfote1_R_046
					{
						OFFSET 0.002217 0.065343 -0.099538
						CHANNELS 6 Xposition Yposition Zposition Zrotation Yrotation Xrotation
						JOINT Pfote2_R_047
						{
							OFFSET -0.007647 0.000092 -0.098466
							CHANNELS 6 Xposition Yposition Zposition Zrotation Yrotation Xrotation
							End Site
							{
								OFFSET -1.000000 -0.000000 0.000006
							}
						}
					}
				}
			}
		}
	}
}
MOTION
Frames: 4
Frame Time: 0.041667
0.000000 0.250564 0.338481 -0.000000 -0.000000 0.000000 0.000000 0.000000 -0.000000 0.000000 0.000000 -90.000009 0.000000 -0.148737 -0.047931 0.000004 -0.000011 112.705348 -0.000000 -0.107486 0.017331 -0.000005 -0.000002 -17.211990 -0.000000 -0.054536 -0.021279 -0.000001 -0.000003 -9.309932 -0.000000 -0.114932 -0.050972 0.000008 0.000001 -19.386671 -0.000000 -0.146627 -0.028712 0.000001 -0.000000 37.040030 -0.000003 -0.093878 0.150353 89.983460 81.474362 -90.009128 0.103781 0.004746 0.000000 0.000000 89.999982 178.799039 -0.000407 -0.073113 -0.019017 0.000006 0.000015 0.000006 0.000407 -0.009753 -0.030819 0.000022 0.000003 0.000003 0.000407 -0.014613 0.001280 -0.000008 -0.000006 0.000009 -0.000000 -0.098921 -0.010065 0.000006 -0.000003 0.000844 0.036228 -0.075578 -0.014907 -0.000016 0.000007 -0.000006 -0.036228 -0.075578 -0.014907 -0.000001 -0.000031 0.000033 -0.000000 -0.177608 0.038189 89.999996 -4.910725 -90.000003 0.034613 -0.000000 0.029432 5.121071 -165.749416 -1.683207 0.034613 0.000000 -0.029432 5.121073 165.749416 1.683297 -0.022119 -0.095533 0.040981 4.645047 -1.296931 -0.397496 0.022119 -0.095533 0.040981 -4.643140 1.296997 -0.397512 0.036475 -0.039728 0.085373 0.000043 0.000040 -0.000125 -0.036475 -0.039728 0.085373 -0.000043 -0.000058 -0.000096 0.036984 -0.083108 0.061567 0.000003 -0.000024 -0.000008 -0.036984 -0.083107 0.061567 0.000011 0.000025 0.000002 0.032663 -0.093880 0.047342 0.000008 0.000009 0.000020 -0.032663 -0.093880 0.047342 0.000008 0.000026 0.000006 0.033082 -0.093096 0.044255 -0.000011 -0.000015 -0.000014 -0.033082 -0.093096 0.044254 0.000003 0.000041 -0.000003 0.000000 -0.099638 0.100361 90.000016 62.066646 -90.000009 0.089257 0.000000 -0.038208 -167.702769 94.166937 -3.389546 0.028512 -0.094851 -0.101566 5.105090 -2.499055 -2.352044 0.003153 0.098010 -0.177542 -0.019248 0.303486 9.857468 0.002604 -0.029854 -0.167942 -0.096280 0.019899 -4.149977 0.089257 -0.000000 0.038208 -21.513810 85.386456 119.917495 -0.028512 -0.094851 -0.101566 -7.219996 -5.639264 7.422142 -0.003153 0.098011 -0.177542 -0.087324 0.689348 -14.173274 -0.002604 -0.029854 -0.167941 -7.898000 -9.398456 37.411470 -0.000000 0.010488 -0.003714 1.493514 -0.533987 15.591409 0.000000 0.085232 -0.032006 -0.521969 0.113285 -31.078016 0.000000 0.076544 -0.017668 -0.905831 0.546678 -39.731948 0.000000 0.083495 0.001194 -4.293694 -2.109820 -19.896577 0.058344 0.041594 -0.051857 -0.918219 0.027401 -10.157295 0.014913 -0.013499 -0.167440 6.525083 8.434577 50.792155 -0.002217 0.065343 -0.099538 -0.883324 -0.618086 -12.165384 0.007647 0.000092 -0.098466 -0.387264 -9.326017 102.564614 -0.058370 0.033474 -0.060290 2.034661 0.162021 -22.685159 -0.014913 -0.013499 -0.167441 -8.249193 -12.632295 85.553816 0.002217 0.065343 -0.099538 3.782608 -2.708853 -36.203384 -0.007647 0.000092 -0.098466 -5.164913 17.352470 101.276160 
0.000000 0.250564 0.338481 -0.000000 -0.000000 0.000000 0.000000 0.000000 -0.000000 0.000000 0.000000 -90.000009 0.000000 -0.145338 -0.038959 0.000003 -0.000007 107.467077 -0.000000 -0.110218 0.019070 0.000002 -0.000000 -8.316141 0.000000 -0.055920 -0.017456 -0.000003 -0.000003 -6.406338 -0.000000 -0.113485 -0.041522 0.000006 -0.000004 -15.866120 -0.000000 -0.151288 -0.029928 0.000003 -0.000002 34.049948 -0.000003 -0.093878 0.150353 89.983460 81.474355 -90.009128 0.103861 0.003925 0.000000 0.000000 89.999989 174.796466 -0.000407 -0.073113 -0.019017 0.000006 0.000015 0.000008 0.000407 -0.009753 -0.030819 0.000021 0.000003 -0.000002 0.000407 -0.014613 0.001280 -0.000008 -0.000005 0.000008 -0.000000 -0.098921 -0.010065 0.000006 -0.000003 0.000845 0.036228 -0.075578 -0.014907 -0.000014 0.000008 -0.000008 -0.036228 -0.075578 -0.014907 -0.000003 -0.000032 0.000032 -0.000000 -0.177608 0.038189 89.999996 -4.910727 -90.000003 0.034613 -0.000000 0.029432 5.121070 -165.749416 -1.683207 0.034613 -0.000000 -0.029432 5.121075 165.749416 1.683296 -0.022119 -0.095533 0.040981 4.645045 -1.296931 -0.397497 0.022119 -0.095533 0.040981 -4.643140 1.296996 -0.397511 0.036475 -0.039728 0.085373 0.000043 0.000039 -0.000127 -0.036475 -0.039728 0.085373 -0.000045 -0.000057 -0.000099 0.036984 -0.083108 0.061567 0.000006 -0.000024 -0.000002 -0.036984 -0.083107 0.061567 0.000005 0.000025 0.000002 0.032663 -0.093880 0.047342 0.000003 0.000007 0.000019 -0.032663 -0.093880 0.047342 0.000010 0.000026 0.000009 0.033082 -0.093096 0.044255 -0.000015 -0.000011 -0.000015 -0.033082 -0.093096 0.044254 0.000003 0.000042 -0.000003 0.000000 -0.099638 0.100361 90.000016 62.066653 -90.000009 0.089257 0.000000 -0.038208 -187.175829 94.591064 -14.408904 0.028512 -0.094851 -0.101566 4.663482 -3.374778 5.434344 0.003153 0.098010 -0.177542 -0.084864 0.236616 9.767032 0.002604 -0.029854 -0.167942 -0.237787 0.007452 -16.984958 0.089257 0.000000 0.038208 -18.350343 88.166821 134.760930 -0.028512 -0.094851 -0.101566 -7.100666 -5.015081 2.941421 -0.003153 0.098011 -0.177542 -0.381295 0.953642 -1.502121 -0.002604 -0.029854 -0.167941 -3.348213 -8.291950 13.337824 0.000000 0.010488 -0.003714 1.474539 -0.592640 17.830719 0.000000 0.085232 -0.032006 -0.554475 -0.151285 -16.689038 0.000000 0.076544 -0.017668 -0.906401 0.545767 -28.941141 0.000000 0.083495 0.001194 -4.293694 -2.109820 -19.896578 0.058344 0.028088 -0.045648 -0.986993 0.022889 -10.918588 0.014913 -0.013499 -0.167440 10.928700 13.364676 90.194547 -0.002217 0.065343 -0.099538 -2.555641 -3.584116 -51.228058 0.007647 0.000092 -0.098466 2.886772 -15.346303 120.449621 -0.058370 0.019967 -0.054081 4.472999 1.683012 -54.802347 -0.014913 -0.013499 -0.167441 -14.697964 -13.177112 94.538329 0.002217 0.065343 -0.099538 1.101249 -1.200525 -12.470156 -0.007647 0.000092 -0.098466 -12.872527 14.868670 73.283497 
0.000000 0.250564 0.338481 -0.000000 -0.000000 0.000000 0.000000 0.000000 -0.000000 0.000000 0.000000 -90.000009 0.000000 -0.141080 -0.027929 0.000006 -0.000005 100.620639 -0.000000 -0.114264 0.020854 -0.000002 0.000000 2.333503 0.000000 -0.057738 -0.012431 0.000000 -0.000002 -3.151982 -0.000000 -0.111878 -0.029971 0.000004 -0.000001 -11.583112 -0.000000 -0.156978 -0.031412 -0.000001 0.000005 30.416195 -0.000003 -0.093878 0.150353 89.983460 81.474355 -90.009128 0.103942 0.002924 0.000000 0.000000 89.999982 169.921501 -0.000407 -0.073113 -0.019017 0.000006 0.000014 0.000004 0.000407 -0.009753 -0.030819 0.000021 0.000003 -0.000003 0.000407 -0.014613 0.001280 -0.000008 -0.000005 0.000003 0.000000 -0.098921 -0.010065 0.000006 -0.000003 0.000844 0.036228 -0.075578 -0.014907 -0.000016 0.000008 -0.000009 -0.036228 -0.075578 -0.014907 0.000001 -0.000030 0.000033 -0.000000 -0.177608 0.038189 89.999996 -4.910726 -90.000003 0.034613 -0.000000 0.029432 5.121073 -165.749416 -1.683206 0.034613 -0.000000 -0.029432 5.121074 165.749416 1.683297 -0.022119 -0.095533 0.040981 4.645046 -1.296929 -0.397497 0.022119 -0.095533 0.040981 -4.643140 1.296997 -0.397514 0.036475 -0.039728 0.085373 0.000043 0.000042 -0.000128 -0.036475 -0.039728 0.085373 -0.000044 -0.000059 -0.000099 0.036984 -0.083108 0.061567 0.000003 -0.000026 -0.000006 -0.036984 -0.083107 0.061567 0.000007 0.000024 0.000000 0.032663 -0.093880 0.047342 0.000007 0.000007 0.000018 -0.032663 -0.093880 0.047342 0.000010 0.000027 0.000006 0.033082 -0.093096 0.044255 -0.000017 -0.000011 -0.000014 -0.033082 -0.093096 0.044254 0.000002 0.000038 -0.000005 0.000000 -0.099638 0.100361 90.000016 62.066646 -90.000009 0.089257 0.000000 -0.038208 -184.012700 92.803597 -19.753313 0.028512 -0.094851 -0.101566 0.385880 -1.800057 29.264147 0.003153 0.098010 -0.177542 -1.604367 2.814185 -5.590257 0.002604 -0.029854 -0.167942 0.225812 -4.655613 20.878649 0.089257 0.000000 0.038208 -19.657522 86.660197 132.139353 -0.028512 -0.094851 -0.101566 -4.900169 -5.926498 11.516821 -0.003153 0.098011 -0.177542 -0.092640 0.513533 -7.821424 -0.002604 -0.029854 -0.167941 -1.807764 -8.492437 5.574730 -0.000000 0.010192 -0.007850 1.603740 -0.042507 -2.442101 0.000000 0.085232 -0.032006 -0.884850 -0.688450 17.875850 0.000000 0.076544 -0.017668 -0.908206 0.544163 -2.105919 0.000000 0.083495 0.001194 -4.293694 -2.109820 -19.896577 0.058344 0.011705 -0.038047 -1.230209 -0.000443 -13.616464 0.014913 -0.013499 -0.167440 11.308402 12.968991 90.533092 -0.002217 0.065343 -0.099538 -2.457712 -3.140538 -46.114517 0.007647 0.000092 -0.098466 3.756724 -14.946488 120.046134 -0.058370 0.003584 -0.046480 4.470316 1.680033 -54.758170 -0.014913 -0.013499 -0.167441 -11.517462 -7.571863 66.918478 0.002217 0.065343 -0.099538 -1.178606 2.417726 20.617196 -0.007647 0.000092 -0.098466 -6.075261 7.628156 52.232113 
0.000000 0.250564 0.338481 -0.000000 -0.000000 0.000000 0.000000 0.000000 -0.000000 0.000000 0.000000 -90.000009 0.000000 -0.137731 -0.019594 0.000004 -0.000002 94.758158 -0.000000 -0.118437 0.021627 0.000000 0.000001 9.823402 0.000000 -0.059303 -0.008106 -0.000000 0.000002 -1.206516 -0.000000 -0.110271 -0.018420 0.000005 -0.000002 -7.229900 -0.000000 -0.162669 -0.032896 0.000003 0.000007 26.724543 -0.000003 -0.093878 0.150353 89.983460 81.474355 -90.009128 0.104022 0.001922 0.000000 0.000000 89.999982 164.964313 -0.000407 -0.073113 -0.019017 0.000006 0.000014 0.000008 0.000407 -0.009753 -0.030819 0.000021 0.000003 -0.000002 0.000407 -0.014613 0.001280 -0.000008 -0.000005 0.000007 0.000000 -0.098921 -0.010065 0.000006 -0.000003 0.000845 0.036228 -0.075578 -0.014907 -0.000016 0.000007 -0.000006 -0.036228 -0.075578 -0.014907 -0.000001 -0.000029 0.000035 -0.000000 -0.177608 0.038189 89.999996 -4.910730 -90.000003 0.034613 0.000000 0.029432 5.121073 -165.749416 -1.683207 0.034613 -0.000000 -0.029432 5.121070 165.749416 1.683297 -0.022119 -0.095533 0.040981 4.645045 -1.296929 -0.397497 0.022119 -0.095533 0.040981 -4.643140 1.296997 -0.397512 0.036475 -0.039728 0.085373 0.000043 0.000041 -0.000126 -0.036475 -0.039728 0.085373 -0.000045 -0.000058 -0.000096 0.036984 -0.083108 0.061567 0.000003 -0.000022 -0.000003 -0.036984 -0.083107 0.061567 0.000007 0.000023 0.000002 0.032663 -0.093880 0.047342 0.000007 0.000007 0.000020 -0.032663 -0.093880 0.047342 0.000008 0.000026 0.000006 0.033082 -0.093096 0.044255 -0.000015 -0.000014 -0.000016 -0.033082 -0.093096 0.044254 0.000003 0.000040 0.000001 0.000000 -0.099638 0.100361 90.000016 62.066646 -90.000009 0.089257 0.000000 -0.038208 -166.985202 85.876016 -16.968116 0.028512 -0.094851 -0.101566 -1.988839 6.010041 50.385920 0.003153 0.098010 -0.177542 -3.867775 8.571790 -16.124197 0.002604 -0.029854 -0.167942 -1.373184 -2.592436 56.067015 0.089257 -0.000000 0.038208 -17.937426 87.446789 136.980769 -0.028512 -0.094851 -0.101566 0.307689 -6.297924 9.076278 -0.003153 0.098011 -0.177542 -0.045965 0.238970 -3.782521 -0.002604 -0.029854 -0.167941 -2.064353 -8.413520 7.658525 0.000000 0.011714 -0.012669 1.411959 0.729312 -31.372930 0.000000 0.085232 -0.032006 -1.261036 -0.900814 41.216742 0.000000 0.076544 -0.017668 -0.909941 0.542979 16.113695 0.000000 0.083495 0.001194 -4.293693 -2.109820 -19.896582 0.058344 -0.004892 -0.030486 -1.126184 0.010983 -12.461329 0.014913 -0.013499 -0.167440 9.042205 11.311110 77.830210 -0.002217 0.065343 -0.099538 -2.438115 -3.069460 -45.284649 0.007647 0.000092 -0.098466 1.249876 -12.312446 122.475428 -0.058370 -0.013012 -0.038919 3.895803 1.133226 -46.007078 -0.014913 -0.013499 -0.167441 -9.126125 -7.092811 46.471518 0.002217 0.065343 -0.099538 -1.373653 3.322759 27.677439 -0.007647 0.000092 -0.098466 -2.814948 7.292485 44.108774 
